<mxfile host="app.diagrams.net" agent="Mozilla/5.0 (Windows NT 10.0; Win64; x64) AppleWebKit/537.36 (KHTML, like Gecko) Chrome/133.0.0.0 Safari/537.36" version="26.0.11">
  <diagram name="Страница — 1" id="yeDvz2DQcIgNS0b50975">
    <mxGraphModel dx="2022" dy="1827" grid="1" gridSize="10" guides="1" tooltips="1" connect="1" arrows="1" fold="1" page="1" pageScale="1" pageWidth="827" pageHeight="1169" math="0" shadow="0">
      <root>
        <mxCell id="0" />
        <mxCell id="1" parent="0" />
        <mxCell id="xNZQnrK4Vwn50ycF9UzJ-24" style="edgeStyle=orthogonalEdgeStyle;rounded=0;orthogonalLoop=1;jettySize=auto;html=1;exitX=0.5;exitY=1;exitDx=0;exitDy=0;entryX=0.5;entryY=0;entryDx=0;entryDy=0;endArrow=none;startFill=0;" parent="1" source="xNZQnrK4Vwn50ycF9UzJ-1" target="xNZQnrK4Vwn50ycF9UzJ-9" edge="1">
          <mxGeometry relative="1" as="geometry" />
        </mxCell>
        <mxCell id="xNZQnrK4Vwn50ycF9UzJ-75" style="edgeStyle=orthogonalEdgeStyle;rounded=0;orthogonalLoop=1;jettySize=auto;html=1;exitX=0;exitY=0.5;exitDx=0;exitDy=0;entryX=1;entryY=0.633;entryDx=0;entryDy=0;endArrow=none;startFill=0;shape=link;entryPerimeter=0;" parent="1" source="xNZQnrK4Vwn50ycF9UzJ-78" target="xNZQnrK4Vwn50ycF9UzJ-5" edge="1">
          <mxGeometry relative="1" as="geometry">
            <Array as="points">
              <mxPoint x="-140" y="-130" />
              <mxPoint x="-140" y="-200" />
              <mxPoint x="-130" y="-200" />
              <mxPoint x="-130" y="-262" />
            </Array>
          </mxGeometry>
        </mxCell>
        <mxCell id="xNZQnrK4Vwn50ycF9UzJ-77" value="1" style="edgeLabel;html=1;align=center;verticalAlign=middle;resizable=0;points=[];" parent="xNZQnrK4Vwn50ycF9UzJ-75" vertex="1" connectable="0">
          <mxGeometry x="0.8981" y="-1" relative="1" as="geometry">
            <mxPoint as="offset" />
          </mxGeometry>
        </mxCell>
        <mxCell id="xNZQnrK4Vwn50ycF9UzJ-1" value="Врач" style="rounded=0;whiteSpace=wrap;html=1;" parent="1" vertex="1">
          <mxGeometry x="80" y="-360" width="120" height="60" as="geometry" />
        </mxCell>
        <mxCell id="xNZQnrK4Vwn50ycF9UzJ-41" style="edgeStyle=orthogonalEdgeStyle;rounded=0;orthogonalLoop=1;jettySize=auto;html=1;exitX=0.5;exitY=1;exitDx=0;exitDy=0;entryX=0;entryY=0.5;entryDx=0;entryDy=0;endArrow=none;startFill=0;" parent="1" source="xNZQnrK4Vwn50ycF9UzJ-2" target="xNZQnrK4Vwn50ycF9UzJ-40" edge="1">
          <mxGeometry relative="1" as="geometry" />
        </mxCell>
        <mxCell id="WgcuxnAHy-nY8bcKhloH-2" style="edgeStyle=orthogonalEdgeStyle;rounded=0;orthogonalLoop=1;jettySize=auto;html=1;exitX=1;exitY=0.5;exitDx=0;exitDy=0;entryX=0;entryY=0.5;entryDx=0;entryDy=0;endArrow=none;startFill=0;" edge="1" parent="1" source="xNZQnrK4Vwn50ycF9UzJ-2" target="WgcuxnAHy-nY8bcKhloH-1">
          <mxGeometry relative="1" as="geometry" />
        </mxCell>
        <mxCell id="WgcuxnAHy-nY8bcKhloH-12" style="edgeStyle=orthogonalEdgeStyle;rounded=0;orthogonalLoop=1;jettySize=auto;html=1;exitX=0.25;exitY=1;exitDx=0;exitDy=0;entryX=1;entryY=0.5;entryDx=0;entryDy=0;endArrow=none;startFill=0;" edge="1" parent="1" source="WgcuxnAHy-nY8bcKhloH-15" target="xNZQnrK4Vwn50ycF9UzJ-3">
          <mxGeometry relative="1" as="geometry">
            <mxPoint x="-40" y="10" as="targetPoint" />
          </mxGeometry>
        </mxCell>
        <mxCell id="WgcuxnAHy-nY8bcKhloH-14" value="1" style="edgeLabel;html=1;align=center;verticalAlign=middle;resizable=0;points=[];" vertex="1" connectable="0" parent="WgcuxnAHy-nY8bcKhloH-12">
          <mxGeometry x="0.9" relative="1" as="geometry">
            <mxPoint as="offset" />
          </mxGeometry>
        </mxCell>
        <mxCell id="xNZQnrK4Vwn50ycF9UzJ-2" value="БОЛЬНОЙ" style="rounded=0;whiteSpace=wrap;html=1;" parent="1" vertex="1">
          <mxGeometry x="330" y="80" width="120" height="60" as="geometry" />
        </mxCell>
        <mxCell id="xNZQnrK4Vwn50ycF9UzJ-3" value="Мед. Карта" style="rounded=0;whiteSpace=wrap;html=1;" parent="1" vertex="1">
          <mxGeometry x="-250" y="-20" width="120" height="60" as="geometry" />
        </mxCell>
        <mxCell id="xNZQnrK4Vwn50ycF9UzJ-61" style="edgeStyle=orthogonalEdgeStyle;rounded=0;orthogonalLoop=1;jettySize=auto;html=1;exitX=0;exitY=0.75;exitDx=0;exitDy=0;entryX=0.5;entryY=0;entryDx=0;entryDy=0;endArrow=none;startFill=0;" parent="1" source="xNZQnrK4Vwn50ycF9UzJ-4" target="xNZQnrK4Vwn50ycF9UzJ-57" edge="1">
          <mxGeometry relative="1" as="geometry" />
        </mxCell>
        <mxCell id="xNZQnrK4Vwn50ycF9UzJ-87" style="edgeStyle=orthogonalEdgeStyle;rounded=0;orthogonalLoop=1;jettySize=auto;html=1;exitX=0.5;exitY=0;exitDx=0;exitDy=0;endArrow=none;startFill=0;entryX=1;entryY=0;entryDx=0;entryDy=0;" parent="1" source="xNZQnrK4Vwn50ycF9UzJ-88" target="xNZQnrK4Vwn50ycF9UzJ-1" edge="1">
          <mxGeometry relative="1" as="geometry">
            <mxPoint x="320" y="-360" as="targetPoint" />
            <Array as="points">
              <mxPoint x="460" y="-290" />
              <mxPoint x="320" y="-290" />
              <mxPoint x="320" y="-360" />
            </Array>
          </mxGeometry>
        </mxCell>
        <mxCell id="xNZQnrK4Vwn50ycF9UzJ-89" value="1" style="edgeLabel;html=1;align=center;verticalAlign=middle;resizable=0;points=[];" parent="xNZQnrK4Vwn50ycF9UzJ-87" vertex="1" connectable="0">
          <mxGeometry x="0.6382" y="1" relative="1" as="geometry">
            <mxPoint as="offset" />
          </mxGeometry>
        </mxCell>
        <mxCell id="xNZQnrK4Vwn50ycF9UzJ-91" value="1" style="edgeLabel;html=1;align=center;verticalAlign=middle;resizable=0;points=[];" parent="xNZQnrK4Vwn50ycF9UzJ-87" vertex="1" connectable="0">
          <mxGeometry x="0.6424" y="-1" relative="1" as="geometry">
            <mxPoint as="offset" />
          </mxGeometry>
        </mxCell>
        <mxCell id="xNZQnrK4Vwn50ycF9UzJ-93" style="edgeStyle=orthogonalEdgeStyle;rounded=0;orthogonalLoop=1;jettySize=auto;html=1;exitX=0.75;exitY=0;exitDx=0;exitDy=0;endArrow=none;startFill=0;shape=link;entryX=1;entryY=0;entryDx=0;entryDy=0;" parent="1" source="xNZQnrK4Vwn50ycF9UzJ-4" target="xNZQnrK4Vwn50ycF9UzJ-88" edge="1">
          <mxGeometry relative="1" as="geometry">
            <mxPoint x="560" y="-350" as="targetPoint" />
            <Array as="points">
              <mxPoint x="780" y="-610" />
              <mxPoint x="505" y="-610" />
            </Array>
          </mxGeometry>
        </mxCell>
        <mxCell id="WgcuxnAHy-nY8bcKhloH-11" value="1" style="edgeLabel;html=1;align=center;verticalAlign=middle;resizable=0;points=[];" vertex="1" connectable="0" parent="xNZQnrK4Vwn50ycF9UzJ-93">
          <mxGeometry x="-0.7752" relative="1" as="geometry">
            <mxPoint as="offset" />
          </mxGeometry>
        </mxCell>
        <mxCell id="xNZQnrK4Vwn50ycF9UzJ-4" value="ПРИЁМ" style="rounded=0;whiteSpace=wrap;html=1;" parent="1" vertex="1">
          <mxGeometry x="690" y="-590" width="120" height="60" as="geometry" />
        </mxCell>
        <mxCell id="WgcuxnAHy-nY8bcKhloH-19" style="edgeStyle=orthogonalEdgeStyle;rounded=0;orthogonalLoop=1;jettySize=auto;html=1;exitX=0.75;exitY=1;exitDx=0;exitDy=0;entryX=0.5;entryY=0;entryDx=0;entryDy=0;endArrow=none;startFill=0;" edge="1" parent="1" source="WgcuxnAHy-nY8bcKhloH-20" target="xNZQnrK4Vwn50ycF9UzJ-3">
          <mxGeometry relative="1" as="geometry" />
        </mxCell>
        <mxCell id="WgcuxnAHy-nY8bcKhloH-22" value="М" style="edgeLabel;html=1;align=center;verticalAlign=middle;resizable=0;points=[];" vertex="1" connectable="0" parent="WgcuxnAHy-nY8bcKhloH-19">
          <mxGeometry x="0.6615" y="-1" relative="1" as="geometry">
            <mxPoint as="offset" />
          </mxGeometry>
        </mxCell>
        <mxCell id="xNZQnrK4Vwn50ycF9UzJ-5" value="Поликлиника" style="rounded=0;whiteSpace=wrap;html=1;" parent="1" vertex="1">
          <mxGeometry x="-280" y="-300" width="120" height="60" as="geometry" />
        </mxCell>
        <mxCell id="xNZQnrK4Vwn50ycF9UzJ-29" style="edgeStyle=orthogonalEdgeStyle;rounded=0;orthogonalLoop=1;jettySize=auto;html=1;exitX=0;exitY=0.5;exitDx=0;exitDy=0;entryX=0;entryY=0.5;entryDx=0;entryDy=0;endArrow=none;startFill=0;" parent="1" source="xNZQnrK4Vwn50ycF9UzJ-7" target="xNZQnrK4Vwn50ycF9UzJ-1" edge="1">
          <mxGeometry relative="1" as="geometry">
            <Array as="points">
              <mxPoint x="20" y="-155" />
              <mxPoint x="20" y="-310" />
              <mxPoint x="80" y="-310" />
            </Array>
          </mxGeometry>
        </mxCell>
        <mxCell id="xNZQnrK4Vwn50ycF9UzJ-7" value="Кабинет" style="ellipse;whiteSpace=wrap;html=1;" parent="1" vertex="1">
          <mxGeometry x="40" y="-180" width="90" height="50" as="geometry" />
        </mxCell>
        <mxCell id="xNZQnrK4Vwn50ycF9UzJ-8" value="Телефон" style="ellipse;whiteSpace=wrap;html=1;" parent="1" vertex="1">
          <mxGeometry x="140" y="-140" width="90" height="50" as="geometry" />
        </mxCell>
        <mxCell id="xNZQnrK4Vwn50ycF9UzJ-9" value="Специальность" style="ellipse;whiteSpace=wrap;html=1;" parent="1" vertex="1">
          <mxGeometry x="160" y="-270" width="90" height="50" as="geometry" />
        </mxCell>
        <mxCell id="xNZQnrK4Vwn50ycF9UzJ-26" style="edgeStyle=orthogonalEdgeStyle;rounded=0;orthogonalLoop=1;jettySize=auto;html=1;exitX=0;exitY=0.5;exitDx=0;exitDy=0;entryX=0.5;entryY=1;entryDx=0;entryDy=0;endArrow=none;startFill=0;" parent="1" source="xNZQnrK4Vwn50ycF9UzJ-11" target="xNZQnrK4Vwn50ycF9UzJ-1" edge="1">
          <mxGeometry relative="1" as="geometry" />
        </mxCell>
        <mxCell id="xNZQnrK4Vwn50ycF9UzJ-11" value="Стаж" style="ellipse;whiteSpace=wrap;html=1;" parent="1" vertex="1">
          <mxGeometry x="160" y="-210" width="100" height="50" as="geometry" />
        </mxCell>
        <mxCell id="xNZQnrK4Vwn50ycF9UzJ-25" style="edgeStyle=orthogonalEdgeStyle;rounded=0;orthogonalLoop=1;jettySize=auto;html=1;exitX=0.5;exitY=0;exitDx=0;exitDy=0;entryX=0.25;entryY=1;entryDx=0;entryDy=0;endArrow=none;startFill=0;" parent="1" source="xNZQnrK4Vwn50ycF9UzJ-12" target="xNZQnrK4Vwn50ycF9UzJ-1" edge="1">
          <mxGeometry relative="1" as="geometry" />
        </mxCell>
        <mxCell id="xNZQnrK4Vwn50ycF9UzJ-12" value="ФИО" style="ellipse;whiteSpace=wrap;html=1;" parent="1" vertex="1">
          <mxGeometry x="40" y="-260" width="90" height="50" as="geometry" />
        </mxCell>
        <mxCell id="xNZQnrK4Vwn50ycF9UzJ-30" style="edgeStyle=orthogonalEdgeStyle;rounded=0;orthogonalLoop=1;jettySize=auto;html=1;exitX=0;exitY=0.5;exitDx=0;exitDy=0;entryX=0.462;entryY=1.014;entryDx=0;entryDy=0;entryPerimeter=0;endArrow=none;startFill=0;" parent="1" source="xNZQnrK4Vwn50ycF9UzJ-8" target="xNZQnrK4Vwn50ycF9UzJ-1" edge="1">
          <mxGeometry relative="1" as="geometry">
            <Array as="points">
              <mxPoint x="135" y="-115" />
              <mxPoint x="135" y="-210" />
            </Array>
          </mxGeometry>
        </mxCell>
        <mxCell id="xNZQnrK4Vwn50ycF9UzJ-32" value="" style="edgeStyle=orthogonalEdgeStyle;rounded=0;orthogonalLoop=1;jettySize=auto;html=1;exitX=1;exitY=0.5;exitDx=0;exitDy=0;entryX=0.5;entryY=0;entryDx=0;entryDy=0;endArrow=none;startFill=0;shape=link;" parent="1" source="xNZQnrK4Vwn50ycF9UzJ-1" target="xNZQnrK4Vwn50ycF9UzJ-31" edge="1">
          <mxGeometry relative="1" as="geometry">
            <mxPoint x="200" y="-330" as="sourcePoint" />
            <mxPoint x="430" y="-270" as="targetPoint" />
            <Array as="points">
              <mxPoint x="280" y="-330" />
              <mxPoint x="280" y="40" />
            </Array>
          </mxGeometry>
        </mxCell>
        <mxCell id="xNZQnrK4Vwn50ycF9UzJ-33" value="1" style="edgeLabel;html=1;align=center;verticalAlign=middle;resizable=0;points=[];" parent="xNZQnrK4Vwn50ycF9UzJ-32" vertex="1" connectable="0">
          <mxGeometry x="-0.8511" relative="1" as="geometry">
            <mxPoint x="16" as="offset" />
          </mxGeometry>
        </mxCell>
        <mxCell id="WgcuxnAHy-nY8bcKhloH-9" style="edgeStyle=orthogonalEdgeStyle;rounded=0;orthogonalLoop=1;jettySize=auto;html=1;exitX=1;exitY=0.5;exitDx=0;exitDy=0;entryX=0;entryY=0.75;entryDx=0;entryDy=0;endArrow=none;startFill=0;" edge="1" parent="1" source="xNZQnrK4Vwn50ycF9UzJ-31" target="xNZQnrK4Vwn50ycF9UzJ-2">
          <mxGeometry relative="1" as="geometry" />
        </mxCell>
        <mxCell id="WgcuxnAHy-nY8bcKhloH-10" value="M" style="edgeLabel;html=1;align=center;verticalAlign=middle;resizable=0;points=[];" vertex="1" connectable="0" parent="WgcuxnAHy-nY8bcKhloH-9">
          <mxGeometry x="0.2505" y="1" relative="1" as="geometry">
            <mxPoint as="offset" />
          </mxGeometry>
        </mxCell>
        <mxCell id="xNZQnrK4Vwn50ycF9UzJ-31" value="вести приём" style="rhombus;whiteSpace=wrap;html=1;" parent="1" vertex="1">
          <mxGeometry x="170" y="40" width="110" height="40" as="geometry" />
        </mxCell>
        <mxCell id="xNZQnrK4Vwn50ycF9UzJ-45" style="edgeStyle=orthogonalEdgeStyle;rounded=0;orthogonalLoop=1;jettySize=auto;html=1;exitX=0.5;exitY=1;exitDx=0;exitDy=0;entryX=0.5;entryY=0;entryDx=0;entryDy=0;endArrow=none;startFill=0;" parent="1" source="xNZQnrK4Vwn50ycF9UzJ-36" target="xNZQnrK4Vwn50ycF9UzJ-2" edge="1">
          <mxGeometry relative="1" as="geometry" />
        </mxCell>
        <mxCell id="xNZQnrK4Vwn50ycF9UzJ-36" value="ФИО" style="ellipse;whiteSpace=wrap;html=1;" parent="1" vertex="1">
          <mxGeometry x="330" width="90" height="50" as="geometry" />
        </mxCell>
        <mxCell id="xNZQnrK4Vwn50ycF9UzJ-44" style="edgeStyle=orthogonalEdgeStyle;rounded=0;orthogonalLoop=1;jettySize=auto;html=1;exitX=0;exitY=0.5;exitDx=0;exitDy=0;entryX=1;entryY=0;entryDx=0;entryDy=0;endArrow=none;startFill=0;" parent="1" source="xNZQnrK4Vwn50ycF9UzJ-37" target="xNZQnrK4Vwn50ycF9UzJ-2" edge="1">
          <mxGeometry relative="1" as="geometry">
            <Array as="points">
              <mxPoint x="440" y="25" />
              <mxPoint x="440" y="80" />
            </Array>
          </mxGeometry>
        </mxCell>
        <mxCell id="xNZQnrK4Vwn50ycF9UzJ-37" value="Дата рождения" style="ellipse;whiteSpace=wrap;html=1;" parent="1" vertex="1">
          <mxGeometry x="510" width="90" height="50" as="geometry" />
        </mxCell>
        <mxCell id="xNZQnrK4Vwn50ycF9UzJ-42" style="edgeStyle=orthogonalEdgeStyle;rounded=0;orthogonalLoop=1;jettySize=auto;html=1;exitX=0;exitY=0.5;exitDx=0;exitDy=0;entryX=1;entryY=1;entryDx=0;entryDy=0;endArrow=none;startFill=0;" parent="1" source="xNZQnrK4Vwn50ycF9UzJ-39" target="xNZQnrK4Vwn50ycF9UzJ-2" edge="1">
          <mxGeometry relative="1" as="geometry" />
        </mxCell>
        <mxCell id="xNZQnrK4Vwn50ycF9UzJ-39" value="Пол" style="ellipse;whiteSpace=wrap;html=1;" parent="1" vertex="1">
          <mxGeometry x="470" y="130" width="90" height="50" as="geometry" />
        </mxCell>
        <mxCell id="xNZQnrK4Vwn50ycF9UzJ-40" value="Группа крови" style="ellipse;whiteSpace=wrap;html=1;" parent="1" vertex="1">
          <mxGeometry x="400" y="190" width="90" height="50" as="geometry" />
        </mxCell>
        <mxCell id="xNZQnrK4Vwn50ycF9UzJ-46" value="График работы" style="ellipse;whiteSpace=wrap;html=1;" parent="1" vertex="1">
          <mxGeometry x="-410" y="-220" width="90" height="50" as="geometry" />
        </mxCell>
        <mxCell id="xNZQnrK4Vwn50ycF9UzJ-53" style="edgeStyle=orthogonalEdgeStyle;rounded=0;orthogonalLoop=1;jettySize=auto;html=1;exitX=1;exitY=0.5;exitDx=0;exitDy=0;entryX=0;entryY=0.5;entryDx=0;entryDy=0;endArrow=none;startFill=0;" parent="1" source="xNZQnrK4Vwn50ycF9UzJ-47" target="xNZQnrK4Vwn50ycF9UzJ-5" edge="1">
          <mxGeometry relative="1" as="geometry" />
        </mxCell>
        <mxCell id="xNZQnrK4Vwn50ycF9UzJ-47" value="Телефон" style="ellipse;whiteSpace=wrap;html=1;" parent="1" vertex="1">
          <mxGeometry x="-430" y="-300" width="90" height="50" as="geometry" />
        </mxCell>
        <mxCell id="xNZQnrK4Vwn50ycF9UzJ-48" value="Адрес" style="ellipse;whiteSpace=wrap;html=1;" parent="1" vertex="1">
          <mxGeometry x="-380" y="-390" width="90" height="50" as="geometry" />
        </mxCell>
        <mxCell id="xNZQnrK4Vwn50ycF9UzJ-51" style="edgeStyle=orthogonalEdgeStyle;rounded=0;orthogonalLoop=1;jettySize=auto;html=1;exitX=1;exitY=0.5;exitDx=0;exitDy=0;entryX=0.5;entryY=1;entryDx=0;entryDy=0;endArrow=none;startFill=0;" parent="1" source="xNZQnrK4Vwn50ycF9UzJ-49" target="xNZQnrK4Vwn50ycF9UzJ-5" edge="1">
          <mxGeometry relative="1" as="geometry" />
        </mxCell>
        <mxCell id="xNZQnrK4Vwn50ycF9UzJ-49" value="Количество&lt;div&gt;врачей&lt;/div&gt;" style="ellipse;whiteSpace=wrap;html=1;" parent="1" vertex="1">
          <mxGeometry x="-340" y="-150" width="90" height="50" as="geometry" />
        </mxCell>
        <mxCell id="xNZQnrK4Vwn50ycF9UzJ-50" value="Название" style="ellipse;whiteSpace=wrap;html=1;" parent="1" vertex="1">
          <mxGeometry x="-310" y="-450" width="90" height="50" as="geometry" />
        </mxCell>
        <mxCell id="xNZQnrK4Vwn50ycF9UzJ-52" style="edgeStyle=orthogonalEdgeStyle;rounded=0;orthogonalLoop=1;jettySize=auto;html=1;exitX=1;exitY=0.5;exitDx=0;exitDy=0;entryX=0.178;entryY=0.964;entryDx=0;entryDy=0;entryPerimeter=0;endArrow=none;startFill=0;" parent="1" source="xNZQnrK4Vwn50ycF9UzJ-46" target="xNZQnrK4Vwn50ycF9UzJ-5" edge="1">
          <mxGeometry relative="1" as="geometry" />
        </mxCell>
        <mxCell id="xNZQnrK4Vwn50ycF9UzJ-54" style="edgeStyle=orthogonalEdgeStyle;rounded=0;orthogonalLoop=1;jettySize=auto;html=1;exitX=1;exitY=1;exitDx=0;exitDy=0;entryX=0.135;entryY=0.026;entryDx=0;entryDy=0;entryPerimeter=0;endArrow=none;startFill=0;" parent="1" source="xNZQnrK4Vwn50ycF9UzJ-48" target="xNZQnrK4Vwn50ycF9UzJ-5" edge="1">
          <mxGeometry relative="1" as="geometry" />
        </mxCell>
        <mxCell id="xNZQnrK4Vwn50ycF9UzJ-55" style="edgeStyle=orthogonalEdgeStyle;rounded=0;orthogonalLoop=1;jettySize=auto;html=1;exitX=1;exitY=1;exitDx=0;exitDy=0;entryX=0.388;entryY=0.026;entryDx=0;entryDy=0;entryPerimeter=0;endArrow=none;startFill=0;" parent="1" source="xNZQnrK4Vwn50ycF9UzJ-50" target="xNZQnrK4Vwn50ycF9UzJ-5" edge="1">
          <mxGeometry relative="1" as="geometry" />
        </mxCell>
        <mxCell id="xNZQnrK4Vwn50ycF9UzJ-57" value="Тип приема" style="ellipse;whiteSpace=wrap;html=1;" parent="1" vertex="1">
          <mxGeometry x="560" y="-520" width="90" height="50" as="geometry" />
        </mxCell>
        <mxCell id="xNZQnrK4Vwn50ycF9UzJ-65" style="edgeStyle=orthogonalEdgeStyle;rounded=0;orthogonalLoop=1;jettySize=auto;html=1;exitX=0;exitY=1;exitDx=0;exitDy=0;entryX=0.75;entryY=1;entryDx=0;entryDy=0;endArrow=none;startFill=0;" parent="1" source="xNZQnrK4Vwn50ycF9UzJ-58" target="xNZQnrK4Vwn50ycF9UzJ-4" edge="1">
          <mxGeometry relative="1" as="geometry" />
        </mxCell>
        <mxCell id="xNZQnrK4Vwn50ycF9UzJ-58" value="Дата" style="ellipse;whiteSpace=wrap;html=1;" parent="1" vertex="1">
          <mxGeometry x="835" y="-550" width="90" height="50" as="geometry" />
        </mxCell>
        <mxCell id="xNZQnrK4Vwn50ycF9UzJ-59" value="Диагноз" style="ellipse;whiteSpace=wrap;html=1;" parent="1" vertex="1">
          <mxGeometry x="645" y="-450" width="90" height="50" as="geometry" />
        </mxCell>
        <mxCell id="xNZQnrK4Vwn50ycF9UzJ-60" value="Время" style="ellipse;whiteSpace=wrap;html=1;" parent="1" vertex="1">
          <mxGeometry x="770" y="-450" width="90" height="50" as="geometry" />
        </mxCell>
        <mxCell id="xNZQnrK4Vwn50ycF9UzJ-62" style="edgeStyle=orthogonalEdgeStyle;rounded=0;orthogonalLoop=1;jettySize=auto;html=1;exitX=0;exitY=0;exitDx=0;exitDy=0;entryX=0.076;entryY=1.02;entryDx=0;entryDy=0;entryPerimeter=0;endArrow=none;startFill=0;" parent="1" source="xNZQnrK4Vwn50ycF9UzJ-59" target="xNZQnrK4Vwn50ycF9UzJ-4" edge="1">
          <mxGeometry relative="1" as="geometry" />
        </mxCell>
        <mxCell id="xNZQnrK4Vwn50ycF9UzJ-63" style="edgeStyle=orthogonalEdgeStyle;rounded=0;orthogonalLoop=1;jettySize=auto;html=1;exitX=0.5;exitY=0;exitDx=0;exitDy=0;entryX=0.545;entryY=1.02;entryDx=0;entryDy=0;entryPerimeter=0;endArrow=none;startFill=0;" parent="1" source="xNZQnrK4Vwn50ycF9UzJ-60" target="xNZQnrK4Vwn50ycF9UzJ-4" edge="1">
          <mxGeometry relative="1" as="geometry" />
        </mxCell>
        <mxCell id="xNZQnrK4Vwn50ycF9UzJ-72" style="edgeStyle=orthogonalEdgeStyle;rounded=0;orthogonalLoop=1;jettySize=auto;html=1;exitX=1;exitY=0.5;exitDx=0;exitDy=0;entryX=0;entryY=0.75;entryDx=0;entryDy=0;endArrow=none;startFill=0;" parent="1" source="xNZQnrK4Vwn50ycF9UzJ-66" target="xNZQnrK4Vwn50ycF9UzJ-3" edge="1">
          <mxGeometry relative="1" as="geometry" />
        </mxCell>
        <mxCell id="xNZQnrK4Vwn50ycF9UzJ-66" value="История болезней" style="ellipse;whiteSpace=wrap;html=1;" parent="1" vertex="1">
          <mxGeometry x="-413" y="60" width="90" height="50" as="geometry" />
        </mxCell>
        <mxCell id="xNZQnrK4Vwn50ycF9UzJ-74" style="edgeStyle=orthogonalEdgeStyle;rounded=0;orthogonalLoop=1;jettySize=auto;html=1;exitX=1;exitY=0;exitDx=0;exitDy=0;entryX=0.75;entryY=1;entryDx=0;entryDy=0;endArrow=none;startFill=0;" parent="1" source="xNZQnrK4Vwn50ycF9UzJ-67" target="xNZQnrK4Vwn50ycF9UzJ-3" edge="1">
          <mxGeometry relative="1" as="geometry" />
        </mxCell>
        <mxCell id="xNZQnrK4Vwn50ycF9UzJ-67" value="Номер карты" style="ellipse;whiteSpace=wrap;html=1;" parent="1" vertex="1">
          <mxGeometry x="-200" y="160" width="90" height="50" as="geometry" />
        </mxCell>
        <mxCell id="xNZQnrK4Vwn50ycF9UzJ-73" style="edgeStyle=orthogonalEdgeStyle;rounded=0;orthogonalLoop=1;jettySize=auto;html=1;exitX=0.5;exitY=0;exitDx=0;exitDy=0;entryX=0.25;entryY=1;entryDx=0;entryDy=0;endArrow=none;startFill=0;" parent="1" source="xNZQnrK4Vwn50ycF9UzJ-68" target="xNZQnrK4Vwn50ycF9UzJ-3" edge="1">
          <mxGeometry relative="1" as="geometry">
            <Array as="points">
              <mxPoint x="-270" y="120" />
              <mxPoint x="-270" y="80" />
              <mxPoint x="-220" y="80" />
            </Array>
          </mxGeometry>
        </mxCell>
        <mxCell id="xNZQnrK4Vwn50ycF9UzJ-68" value="Дата открытия" style="ellipse;whiteSpace=wrap;html=1;" parent="1" vertex="1">
          <mxGeometry x="-330" y="120" width="90" height="50" as="geometry" />
        </mxCell>
        <mxCell id="xNZQnrK4Vwn50ycF9UzJ-71" style="edgeStyle=orthogonalEdgeStyle;rounded=0;orthogonalLoop=1;jettySize=auto;html=1;exitX=1;exitY=1;exitDx=0;exitDy=0;entryX=0;entryY=0.5;entryDx=0;entryDy=0;endArrow=none;startFill=0;" parent="1" source="xNZQnrK4Vwn50ycF9UzJ-70" target="xNZQnrK4Vwn50ycF9UzJ-3" edge="1">
          <mxGeometry relative="1" as="geometry" />
        </mxCell>
        <mxCell id="xNZQnrK4Vwn50ycF9UzJ-70" value="Группа инвалидности" style="ellipse;whiteSpace=wrap;html=1;" parent="1" vertex="1">
          <mxGeometry x="-430" y="-30" width="90" height="50" as="geometry" />
        </mxCell>
        <mxCell id="xNZQnrK4Vwn50ycF9UzJ-79" value="" style="edgeStyle=orthogonalEdgeStyle;rounded=0;orthogonalLoop=1;jettySize=auto;html=1;exitX=0;exitY=0.5;exitDx=0;exitDy=0;entryX=1;entryY=0;entryDx=0;entryDy=0;endArrow=none;startFill=0;" parent="1" source="xNZQnrK4Vwn50ycF9UzJ-1" target="xNZQnrK4Vwn50ycF9UzJ-78" edge="1">
          <mxGeometry relative="1" as="geometry">
            <mxPoint x="80" y="-330" as="sourcePoint" />
            <mxPoint x="-130" y="-20" as="targetPoint" />
          </mxGeometry>
        </mxCell>
        <mxCell id="xNZQnrK4Vwn50ycF9UzJ-80" value="М" style="edgeLabel;html=1;align=center;verticalAlign=middle;resizable=0;points=[];" parent="xNZQnrK4Vwn50ycF9UzJ-79" vertex="1" connectable="0">
          <mxGeometry x="-0.9261" y="3" relative="1" as="geometry">
            <mxPoint y="-3" as="offset" />
          </mxGeometry>
        </mxCell>
        <mxCell id="xNZQnrK4Vwn50ycF9UzJ-78" value="работает" style="rhombus;whiteSpace=wrap;html=1;" parent="1" vertex="1">
          <mxGeometry x="-110" y="-150" width="120" height="40" as="geometry" />
        </mxCell>
        <mxCell id="WgcuxnAHy-nY8bcKhloH-5" value="1" style="edgeStyle=orthogonalEdgeStyle;rounded=0;orthogonalLoop=1;jettySize=auto;html=1;exitX=1;exitY=0.5;exitDx=0;exitDy=0;entryX=0;entryY=0;entryDx=0;entryDy=0;endArrow=none;startFill=0;" edge="1" parent="1" source="xNZQnrK4Vwn50ycF9UzJ-88" target="xNZQnrK4Vwn50ycF9UzJ-2">
          <mxGeometry x="0.8298" relative="1" as="geometry">
            <mxPoint as="offset" />
          </mxGeometry>
        </mxCell>
        <mxCell id="WgcuxnAHy-nY8bcKhloH-6" value="&lt;span style=&quot;color: rgba(0, 0, 0, 0); font-family: monospace; font-size: 0px; text-align: start; background-color: rgb(27, 29, 30);&quot;&gt;%3CmxGraphModel%3E%3Croot%3E%3CmxCell%20id%3D%220%22%2F%3E%3CmxCell%20id%3D%221%22%20parent%3D%220%22%2F%3E%3CmxCell%20id%3D%222%22%20value%3D%22N%22%20style%3D%22edgeLabel%3Bhtml%3D1%3Balign%3Dcenter%3BverticalAlign%3Dmiddle%3Bresizable%3D0%3Bpoints%3D%5B%5D%3B%22%20vertex%3D%221%22%20connectable%3D%220%22%20parent%3D%221%22%3E%3CmxGeometry%20x%3D%22231%22%20y%3D%22-291%22%20as%3D%22geometry%22%2F%3E%3C%2FmxCell%3E%3C%2Froot%3E%3C%2FmxGraphModel%3E&lt;/span&gt;" style="edgeLabel;html=1;align=center;verticalAlign=middle;resizable=0;points=[];" vertex="1" connectable="0" parent="WgcuxnAHy-nY8bcKhloH-5">
          <mxGeometry x="0.8128" y="2" relative="1" as="geometry">
            <mxPoint as="offset" />
          </mxGeometry>
        </mxCell>
        <mxCell id="xNZQnrK4Vwn50ycF9UzJ-88" value="связан" style="rhombus;whiteSpace=wrap;html=1;" parent="1" vertex="1">
          <mxGeometry x="370" y="-180" width="180" height="50" as="geometry" />
        </mxCell>
        <mxCell id="WgcuxnAHy-nY8bcKhloH-1" value="Контактный телефон" style="ellipse;whiteSpace=wrap;html=1;" vertex="1" parent="1">
          <mxGeometry x="520" y="60" width="90" height="50" as="geometry" />
        </mxCell>
        <mxCell id="WgcuxnAHy-nY8bcKhloH-4" style="edgeStyle=orthogonalEdgeStyle;rounded=0;orthogonalLoop=1;jettySize=auto;html=1;exitX=1;exitY=0;exitDx=0;exitDy=0;entryX=0.5;entryY=1;entryDx=0;entryDy=0;endArrow=none;startFill=0;" edge="1" parent="1" source="WgcuxnAHy-nY8bcKhloH-3" target="xNZQnrK4Vwn50ycF9UzJ-3">
          <mxGeometry relative="1" as="geometry">
            <Array as="points">
              <mxPoint x="-230" y="207" />
              <mxPoint x="-230" y="120" />
              <mxPoint x="-190" y="120" />
            </Array>
          </mxGeometry>
        </mxCell>
        <mxCell id="WgcuxnAHy-nY8bcKhloH-3" value="Вакцинации" style="ellipse;whiteSpace=wrap;html=1;" vertex="1" parent="1">
          <mxGeometry x="-340" y="200" width="90" height="50" as="geometry" />
        </mxCell>
        <mxCell id="WgcuxnAHy-nY8bcKhloH-16" value="" style="edgeStyle=orthogonalEdgeStyle;rounded=0;orthogonalLoop=1;jettySize=auto;html=1;exitX=0.25;exitY=1;exitDx=0;exitDy=0;entryX=1;entryY=0.5;entryDx=0;entryDy=0;endArrow=none;startFill=0;" edge="1" parent="1" source="xNZQnrK4Vwn50ycF9UzJ-2" target="WgcuxnAHy-nY8bcKhloH-15">
          <mxGeometry relative="1" as="geometry">
            <mxPoint x="-130" y="10" as="targetPoint" />
            <mxPoint x="360" y="140" as="sourcePoint" />
          </mxGeometry>
        </mxCell>
        <mxCell id="WgcuxnAHy-nY8bcKhloH-17" value="1" style="edgeLabel;html=1;align=center;verticalAlign=middle;resizable=0;points=[];" vertex="1" connectable="0" parent="WgcuxnAHy-nY8bcKhloH-16">
          <mxGeometry x="-0.8471" y="2" relative="1" as="geometry">
            <mxPoint as="offset" />
          </mxGeometry>
        </mxCell>
        <mxCell id="WgcuxnAHy-nY8bcKhloH-15" value="имеет" style="rhombus;whiteSpace=wrap;html=1;" vertex="1" parent="1">
          <mxGeometry x="130" y="150" width="137.5" height="50" as="geometry" />
        </mxCell>
        <mxCell id="WgcuxnAHy-nY8bcKhloH-21" value="" style="edgeStyle=orthogonalEdgeStyle;rounded=0;orthogonalLoop=1;jettySize=auto;html=1;exitX=0.75;exitY=1;exitDx=0;exitDy=0;entryX=0.5;entryY=0;entryDx=0;entryDy=0;shape=link;" edge="1" parent="1" source="xNZQnrK4Vwn50ycF9UzJ-5" target="WgcuxnAHy-nY8bcKhloH-20">
          <mxGeometry relative="1" as="geometry">
            <mxPoint x="-190" y="-240" as="sourcePoint" />
            <mxPoint x="-190" y="-20" as="targetPoint" />
          </mxGeometry>
        </mxCell>
        <mxCell id="WgcuxnAHy-nY8bcKhloH-23" value="1" style="edgeLabel;html=1;align=center;verticalAlign=middle;resizable=0;points=[];" vertex="1" connectable="0" parent="WgcuxnAHy-nY8bcKhloH-21">
          <mxGeometry x="-0.7857" relative="1" as="geometry">
            <mxPoint as="offset" />
          </mxGeometry>
        </mxCell>
        <mxCell id="WgcuxnAHy-nY8bcKhloH-20" value="лежит" style="rhombus;whiteSpace=wrap;html=1;" vertex="1" parent="1">
          <mxGeometry x="-245" y="-100" width="110" height="40" as="geometry" />
        </mxCell>
      </root>
    </mxGraphModel>
  </diagram>
</mxfile>
